<svg id="レイヤー_1" data-name="レイヤー 1" xmlns="http://www.w3.org/2000/svg" viewBox="0 0 85.357 14.042"><title>logo_typo2</title><path d="M13.2,21.919a12.726,12.726,0,0,1-3.154-.3,5.222,5.222,0,0,1-2.024-.82,4.636,4.636,0,0,1-2.2-2.423,5.236,5.236,0,0,1-.348-1.091L5.43,17.09a6.083,6.083,0,0,1-.1-1.312v-.349h5.32l.008.242a1.98,1.98,0,0,0,.654,1.433,2.686,2.686,0,0,0,1.978.642,2.668,2.668,0,0,0,2.136-.679,3.561,3.561,0,0,0,.621-1.975V8.285h5.423V15.2a6.932,6.932,0,0,1-1.308,4.4c-1.626,1.97-4.133,2.277-6.371,2.318C13.6,21.918,13.4,21.919,13.2,21.919Zm-7.378-5.99a5.22,5.22,0,0,0,.091,1.052l.046.185a4.835,4.835,0,0,0,.319,1.008,4.237,4.237,0,0,0,2.023,2.21,4.9,4.9,0,0,0,1.869.748h.006a14.33,14.33,0,0,0,3.6.282c2.124-.039,4.5-.323,5.989-2.13a6.438,6.438,0,0,0,1.2-4.082V8.785H16.542V15.1a4.076,4.076,0,0,1-.728,2.275,3.092,3.092,0,0,1-2.515.871,3.187,3.187,0,0,1-2.33-.774,2.462,2.462,0,0,1-.8-1.543Z" transform="translate(-1.271 -8.065)"/><path d="M44.168,21.721H38.025l-2.518-7.644L33.08,21.721H26.643L21.429,8.285h6.046l2.8,8.035,2.438-8.035H38.68l2.435,7.845,2.7-7.845h5.663Zm-5.781-.5h5.441L48.747,8.785H44.176l-3.087,8.953L38.312,8.785h-5.23l-2.776,9.148L27.119,8.785H22.16l4.826,12.436h5.727L35.5,12.453Z" transform="translate(-1.271 -8.065)"/><path d="M54.867,21.721H49.444V8.285H60.41c1.842.026,3.613.138,5.07,1.207a3.953,3.953,0,0,1,1.358,3.19A4.3,4.3,0,0,1,65.5,16.251a6.189,6.189,0,0,1-2.02,1.016c-1.263.46-4.523.426-6.909.4-.662-.006-1.253-.01-1.705-.007Zm-4.923-.5h4.423V17.173l.243-.006c.48-.012,1.173-.005,1.968,0,2.344.024,5.554.057,6.738-.375a5.732,5.732,0,0,0,1.861-.924A3.821,3.821,0,0,0,66.338,12.7a3.457,3.457,0,0,0-1.166-2.817c-1.327-.971-2.944-1.073-4.766-1.1H49.944Zm9.984-6.74H54.367V11.567h5.56c.57.01,1.9.033,1.891,1.41A1.317,1.317,0,0,1,61.5,14,2.061,2.061,0,0,1,59.928,14.481Zm-5.061-.5h5.06a1.661,1.661,0,0,0,1.208-.328.846.846,0,0,0,.183-.662c0-.669-.362-.906-1.395-.924H54.867Z" transform="translate(-1.271 -8.065)"/><path d="M76.047,22.107h0c-3.285-.056-5.578-.813-7.216-2.386a6.271,6.271,0,0,1-1.911-4.429c0-.131,0-.258,0-.386a4.185,4.185,0,0,1,.21-1.636,6.318,6.318,0,0,1,3.393-4.084c2.735-1.3,7.1-1.326,10.013-.8,3.136.549,5.053,1.873,5.7,3.937a3.822,3.822,0,0,1,.109,1.04v.25H80.8l-.06-.166A2.239,2.239,0,0,0,78.9,12.16a9.907,9.907,0,0,0-4.2.079,3.4,3.4,0,0,0-1.275.624,2.646,2.646,0,0,0-.791,2.106,2.81,2.81,0,0,0,.259,1.37,3.148,3.148,0,0,0,1.916,1.672,7.666,7.666,0,0,0,5.377-.337,3,3,0,0,0,.681-.49H76.475v-3.01H86.629V22.01H83.108L82.5,20.2l-.293.294a8.538,8.538,0,0,1-3.1,1.319,15.573,15.573,0,0,1-3.059.3ZM76.774,8.57A14.916,14.916,0,0,0,70.75,9.629,5.864,5.864,0,0,0,67.6,13.415a3.83,3.83,0,0,0-.186,1.487c0,.132,0,.263,0,.394a5.771,5.771,0,0,0,1.763,4.07c1.535,1.473,3.719,2.187,6.869,2.241a15.394,15.394,0,0,0,2.925-.28,8.22,8.22,0,0,0,2.909-1.213l.838-.846.748,2.242h2.659V14.674H76.975v2.01h4.56l-.024.273c-.048.519-.587.87-1.089,1.159a8.112,8.112,0,0,1-5.783.365,3.675,3.675,0,0,1-2.2-1.929A3.3,3.3,0,0,1,72.131,15l0-.066a3.1,3.1,0,0,1,.954-2.436,3.7,3.7,0,0,1,1.431-.72,10.354,10.354,0,0,1,4.476-.1,2.712,2.712,0,0,1,2.144,1.443h4.7a2.994,2.994,0,0,0-.087-.655c-.58-1.857-2.365-3.066-5.3-3.579A21.158,21.158,0,0,0,76.774,8.57Z" transform="translate(-1.271 -8.065)"/><path d="M3.259,21.818A1.988,1.988,0,1,1,5.247,19.83,1.99,1.99,0,0,1,3.259,21.818Zm0-3.476A1.488,1.488,0,1,0,4.747,19.83,1.489,1.489,0,0,0,3.259,18.342Z" transform="translate(-1.271 -8.065)"/></svg>