<?xml version="1.0" encoding="utf-8"?>
<!-- Generator: Adobe Illustrator 24.0.2, SVG Export Plug-In . SVG Version: 6.00 Build 0)  -->
<svg version="1.1" id="レイヤー_1" xmlns="http://www.w3.org/2000/svg" xmlns:xlink="http://www.w3.org/1999/xlink" x="0px"
	 y="0px" viewBox="0 0 87.9 30" style="enable-background:new 0 0 87.9 30;" xml:space="preserve">
<g>
	<path d="M8.9,21.6c-0.8-0.2-1.5-0.4-2-0.8c-1-0.6-1.8-1.3-2.2-2.4c-0.2-0.4-0.3-0.9-0.4-1.3c-0.1-0.5-0.1-0.9-0.1-1.4h5
		c0,1.5,1.4,2.5,3,2.4c0.9,0,1.9-0.2,2.4-0.8c0.5-0.6,0.7-1.4,0.7-2.2c0,0,0-6.8,0-6.8h5.1v6.9c0,1.5-0.3,3.2-1.3,4.4
		c-1.5,1.9-3.9,2.3-6.4,2.3C11.5,21.9,10,21.9,8.9,21.6z"/>
	<path d="M26.2,21.7L21,8.3h5.7l3.1,8.9l2.7-8.9h5.8L41,17l3-8.7h5.3L44,21.7h-6l-2.8-8.5l-2.7,8.5H26.2z"/>
	<path d="M55,17.5v4.2h-5.1V8.3H61c2,0,3.7,0.2,5.1,1.2c1,0.8,1.3,1.9,1.3,3.1c0.1,1.3-0.3,2.6-1.3,3.5c-0.5,0.4-1.1,0.7-2,1
		C62.4,17.7,57,17.4,55,17.5z M55,14.2h5.5c1,0,1.8-0.3,1.7-1.3c0-1-0.7-1.2-1.7-1.2c0,0-5.5,0-5.5,0V14.2z"/>
	<path d="M77.2,22.1c-2.8,0-5.4-0.6-7.3-2.4C68.7,18.5,68,17,68,15.3c0-0.7-0.1-1.3,0.2-2c0.4-1.8,1.7-3.2,3.4-4.1
		c2.7-1.3,7.2-1.3,10.2-0.8c2.5,0.4,4.9,1.5,5.7,3.9c0.1,0.4,0.1,0.7,0.1,1h-5.3c-0.3-0.8-1.1-1.3-2.1-1.5c-1-0.2-3.5-0.3-4.5,0.1
		c-0.6,0.2-1.1,0.4-1.4,0.7c-0.8,0.6-0.8,1.5-0.9,2.4c0,0.5,0.1,1,0.3,1.5c1.2,2.7,5.7,2.6,7.9,1.5c0.5-0.3,1-0.6,1-1h-4.7v-2.6h10
		V22h-3.2L84,19.9c-0.1,0.1-0.3,0.3-0.6,0.6c-0.9,0.7-1.8,0.9-3.1,1.3C79.3,22.1,77.2,22.1,77.2,22.1z"/>
	<circle cx="1.8" cy="20" r="1.8"/>
</g>
</svg>
